<?xml version="1.0" standalone="no"?>
<!DOCTYPE svg PUBLIC "-//W3C//DTD SVG 20010904//EN"
 "http://www.w3.org/TR/2001/REC-SVG-20010904/DTD/svg10.dtd">
<svg version="1.0" xmlns="http://www.w3.org/2000/svg"
 width="400.000000pt" height="400.000000pt" viewBox="0 0 400.000000 400.000000"
 preserveAspectRatio="xMidYMid meet">
<metadata>
Created by potrace 1.11, written by Peter Selinger 2001-2013
</metadata>
<g transform="translate(0.000000,400.000000) scale(0.100000,-0.100000)"
fill="#000000" stroke="none">
<path d="M1800 3530 c-14 -4 -40 -8 -57 -9 -46 -1 -173 -46 -266 -92 -88 -43
-184 -116 -237 -179 -19 -23 -40 -47 -45 -54 -21 -22 -92 -142 -105 -176 -7
-19 -19 -48 -26 -65 -44 -107 -79 -284 -89 -460 -8 -139 17 -410 50 -545 9
-36 18 -76 21 -90 3 -14 9 -34 14 -45 4 -11 16 -45 24 -75 9 -30 21 -64 26
-75 5 -11 23 -51 39 -88 17 -38 31 -73 31 -78 0 -5 5 -9 10 -9 6 0 10 -5 10
-11 0 -25 118 -188 180 -249 72 -70 191 -140 240 -140 16 0 32 -4 35 -10 4 -6
54 -10 118 -10 62 0 118 -4 125 -9 8 -4 16 -26 19 -49 6 -47 -6 -57 -78 -68
-120 -17 -284 -90 -360 -161 -105 -98 -136 -191 -109 -325 11 -58 10 -64 -6
-73 -10 -5 -43 -32 -73 -60 -87 -81 -171 -225 -171 -295 l0 -30 155 0 c150 0
155 1 166 23 30 59 129 134 129 98 0 -5 6 -16 13 -23 6 -7 24 -32 40 -55 15
-24 34 -43 42 -43 8 0 15 2 15 5 0 13 -42 80 -117 187 -46 64 -83 120 -83 123
0 3 -11 22 -23 43 -38 60 -60 128 -49 147 6 12 6 27 -1 44 -7 21 -5 36 13 75
46 96 151 175 290 217 89 27 183 47 196 42 9 -3 14 -20 14 -45 0 -33 6 -46 34
-72 69 -63 198 -74 275 -23 45 30 69 73 73 132 l3 40 85 -3 c87 -2 135 -11
228 -39 42 -13 52 -20 52 -39 0 -12 16 -41 35 -64 42 -50 51 -80 35 -112 -29
-55 -58 -69 -98 -49 -30 15 -84 30 -167 46 -127 24 -514 21 -675 -6 -69 -11
-148 -24 -176 -29 -28 -4 -66 -16 -84 -25 -62 -32 -13 -37 126 -11 168 31 319
46 478 46 209 0 455 -43 510 -89 39 -34 1 -138 -148 -400 -42 -73 -76 -134
-76 -137 0 -2 51 -4 113 -4 l112 0 54 85 c29 47 59 89 65 95 28 23 176 -115
176 -164 0 -14 21 -16 165 -16 91 0 165 4 165 9 0 42 -28 131 -62 199 -49 97
-152 204 -239 247 -47 25 -50 28 -42 53 4 15 8 59 8 97 -1 131 -74 231 -216
298 -92 43 -171 62 -324 78 -66 7 -122 14 -124 15 -3 3 -30 151 -31 169 0 6
29 33 65 60 164 123 274 301 317 509 19 92 20 122 14 341 -11 426 -26 629 -56
770 -83 399 -263 623 -546 679 -85 17 -201 20 -244 6z m176 -82 c143 -96 308
-398 364 -663 7 -33 16 -73 21 -90 13 -47 47 -260 58 -367 14 -120 14 -447 1
-547 -26 -196 -114 -442 -189 -524 -33 -37 -134 -84 -219 -103 -37 -9 -111
-26 -164 -40 -100 -25 -173 -31 -182 -15 -4 5 -24 12 -46 16 -22 4 -40 11 -40
16 0 5 -7 9 -17 9 -17 0 -105 63 -150 108 -74 73 -125 145 -190 267 -116 217
-168 409 -200 736 -16 153 -16 176 0 305 23 199 49 306 101 424 80 179 220
323 399 409 104 50 249 88 348 90 48 1 64 -4 105 -31z"/>
<path d="M1936 2836 c-159 -59 -190 -289 -53 -400 36 -29 44 -31 120 -31 93 0
140 19 192 77 46 51 55 73 55 138 0 90 -49 163 -138 206 -48 22 -130 27 -176
10z"/>
<path d="M1238 2826 c-76 -22 -136 -73 -157 -135 -39 -119 32 -250 156 -284
52 -15 63 -15 107 -2 56 17 83 33 121 71 36 36 47 68 47 140 1 95 -32 149
-118 194 -55 28 -98 32 -156 16z"/>
<path d="M1475 2390 c-12 -4 -27 -15 -34 -24 -8 -9 -30 -23 -50 -32 -20 -8
-63 -28 -96 -43 -144 -66 -160 -76 -163 -98 -4 -26 1 -28 30 -12 28 15 65 3
84 -26 13 -20 14 -28 4 -40 -18 -22 -37 -19 -67 11 -14 14 -28 23 -31 20 -10
-11 19 -52 49 -70 19 -11 29 -25 29 -42 0 -13 6 -24 13 -24 15 0 5 -60 -26
-165 -33 -111 -32 -165 3 -165 34 0 50 -12 50 -36 0 -13 9 -33 20 -44 18 -18
33 -20 178 -19 181 0 584 16 687 27 l70 7 0 200 c0 224 -9 271 -52 281 -14 4
-192 3 -396 -2 -342 -8 -448 -6 -407 9 8 3 51 17 95 32 179 58 220 95 196 175
-17 57 -61 90 -119 89 -26 0 -56 -4 -67 -9z m123 -60 c25 -22 33 -37 30 -57
-3 -24 -13 -30 -98 -61 -52 -19 -107 -37 -122 -39 -25 -5 -28 -2 -28 20 0 14
-7 33 -16 42 -22 21 -8 36 72 76 36 18 68 37 70 41 12 18 61 7 92 -22z m-260
-112 c19 -19 15 -66 -8 -78 -16 -9 -22 -6 -37 17 -10 16 -23 31 -30 36 -7 4
-10 14 -7 22 7 18 65 20 82 3z m812 -183 c0 -8 -4 -17 -10 -20 -6 -4 -10 5
-10 20 0 15 4 24 10 20 6 -3 10 -12 10 -20z m-80 -26 c0 -16 -21 -102 -30
-124 -5 -11 -17 -47 -27 -80 l-18 -60 -84 -3 c-46 -2 -88 1 -93 6 -6 6 -1 33
10 68 10 32 27 84 36 114 9 30 20 60 24 67 12 18 182 30 182 12z m-595 -9 c4
-7 12 -7 25 0 24 13 170 13 170 0 0 -10 -10 -37 -45 -115 -12 -27 -30 -76 -39
-108 l-18 -58 -72 3 -71 3 2 30 c3 45 26 135 35 135 4 0 8 15 7 33 0 29 -3 27
-31 -33 -17 -36 -33 -84 -36 -107 -6 -59 -18 -65 -93 -56 l-64 9 3 34 c1 19
21 81 44 137 l42 103 67 0 c37 0 71 -5 74 -10z m679 -112 c4 -18 9 -67 13
-108 l6 -75 -37 -18 c-20 -9 -56 -16 -79 -16 l-42 2 42 6 c69 12 73 20 73 137
0 102 11 135 24 72z m-66 -81 c3 -52 1 -57 -18 -57 -17 0 -20 6 -20 38 0 94
33 110 38 19z m-123 -126 c43 -6 32 -8 -75 -14 -69 -5 -228 -10 -354 -13 -207
-5 -228 -4 -217 10 11 13 45 16 195 19 354 5 402 5 451 -2z"/>
<path d="M1576 2313 c-11 -11 -6 -23 9 -23 8 0 15 4 15 9 0 13 -16 22 -24 14z"/>
<path d="M2037 553 c-13 -12 -7 -41 9 -47 21 -8 21 -8 28 9 11 30 -17 59 -37
38z"/>
<path d="M2277 554 c-10 -10 -9 -42 2 -48 18 -11 42 6 39 28 -3 21 -28 33 -41
20z"/>
<path d="M1834 535 c-8 -21 3 -45 20 -45 16 0 31 34 21 50 -9 15 -35 12 -41
-5z"/>
<path d="M1642 511 c-19 -11 -11 -45 11 -49 9 -2 20 4 23 13 9 21 -16 47 -34
36z"/>
<path d="M2493 503 c-19 -7 -16 -40 4 -47 21 -8 36 6 31 30 -3 19 -16 25 -35
17z"/>
<path d="M1477 434 c-9 -9 4 -35 14 -28 5 3 9 12 9 20 0 14 -12 19 -23 8z"/>
</g>
</svg>
